<?xml version="1.0" encoding="utf-8"?>
<!-- Generator: Adobe Illustrator 27.9.0, SVG Export Plug-In . SVG Version: 6.00 Build 0)  -->
<svg version="1.1" id="Слой_1" xmlns="http://www.w3.org/2000/svg" xmlns:xlink="http://www.w3.org/1999/xlink" x="0px" y="0px"
	 viewBox="0 0 841.89 595.28" style="enable-background:new 0 0 841.89 595.28;" xml:space="preserve">
<style type="text/css">
	.st0{fill:#94C11F;}
	.st1{fill:#1A3621;}
</style>
<g>
	<path class="st0" d="M370.24,318.7H265.81V214.27h104.43V318.7z M269.34,315.17h97.38v-97.38h-97.38V315.17z"/>
	<path class="st0" d="M469.76,422.85v-94.2l47.84,13v68.2L469.76,422.85z M473.29,333.26v84.98l40.78-11.08v-62.81L473.29,333.26z"
		/>
	<g>
		<path class="st1" d="M302.5,304.05h48.95v-11.27h-40.36c-2.15,0-3.58-0.36-4.29-1.07c-0.72-0.71-1.07-2.15-1.07-4.29v-58.51
			h-14.17v63.87C291.55,300.3,295.2,304.05,302.5,304.05z"/>
		<path class="st1" d="M506.07,267.21h-21.28v11.39h11.9c1.91,0,3.46,1.55,3.46,3.45v5.36c0,2.15-0.36,3.58-1.07,4.29
			c-0.72,0.72-2.15,1.07-4.29,1.07H483.4c-9.16,0-15.44-1.84-18.84-5.53c-3.4-3.68-5.1-10.61-5.1-20.77c0-10.16,1.7-17.09,5.1-20.77
			c3.4-3.68,9.68-5.53,18.84-5.53h29.2v-11.27h-35.86c-6.23,0-11.49,0.91-15.78,2.74c-4.29,1.83-7.59,4.51-9.88,8.05
			c-2.29,3.54-3.9,7.46-4.83,11.75c-0.93,4.29-1.4,9.3-1.4,15.03c0,5.73,0.46,10.74,1.4,15.03c0.93,4.29,2.54,8.21,4.83,11.75
			c2.29,3.54,5.58,6.23,9.88,8.05c4.29,1.83,9.55,2.74,15.78,2.74h26.62c7.3,0,10.95-3.76,10.95-11.27V278.6v-3.14
			C514.31,270.9,510.62,267.21,506.07,267.21z"/>
		<path class="st1" d="M563.79,227.77c-21.38,0-38.71,17.33-38.71,38.71s17.33,38.71,38.71,38.71c21.38,0,38.71-17.33,38.71-38.71
			S585.17,227.77,563.79,227.77z M563.79,292.48c-14.36,0-26-11.64-26-26c0-14.36,11.64-26,26-26s26,11.64,26,26
			C589.79,280.84,578.15,292.48,563.79,292.48z"/>
		<path class="st1" d="M392.36,291.71c-0.72-0.71-1.07-2.15-1.07-4.29v-16.1h44.55v-11.27h-44.55v-14.49c0-2.15,0.36-3.58,1.07-4.29
			c0.71-0.71,2.15-1.07,4.29-1.07h40.26v-11.27h-48.85c-2.43,0-4.44,0.43-6.06,1.26v-7.26h11.2c1.3,0,2.35-1.05,2.35-2.35
			s-1.05-2.35-2.35-2.35h-11.2v-15.7h-15.7v-12.64c0-1.3-1.05-2.35-2.35-2.35s-2.35,1.05-2.35,2.35v12.64h-13.67v-27.64
			c0-1.3-1.05-2.35-2.35-2.35s-2.35,1.05-2.35,2.35v27.64h-13.67v-12.64c0-1.3-1.05-2.35-2.35-2.35s-2.35,1.05-2.35,2.35v12.64
			H311.2v-42.02c0-1.3-1.05-2.35-2.35-2.35s-2.35,1.05-2.35,2.35v42.02h-13.67v-27.64c0-1.3-1.05-2.35-2.35-2.35
			s-2.35,1.05-2.35,2.35v27.64h-13.67v-15.46c0-1.3-1.05-2.35-2.35-2.35s-2.35,1.05-2.35,2.35v15.46h-15.7v15.7h-12.31
			c-1.3,0-2.35,1.05-2.35,2.35s1.05,2.35,2.35,2.35h12.31v13.67h-12.31c-1.3,0-2.35,1.05-2.35,2.35c0,1.3,1.05,2.35,2.35,2.35h12.31
			v13.67h-12.31c-1.3,0-2.35,1.05-2.35,2.35s1.05,2.35,2.35,2.35h12.31v13.67h-12.31c-1.3,0-2.35,1.05-2.35,2.35
			s1.05,2.35,2.35,2.35h12.31v13.67h-12.31c-1.3,0-2.35,1.05-2.35,2.35s1.05,2.35,2.35,2.35h12.31v13.67h-12.31
			c-1.3,0-2.35,1.05-2.35,2.35c0,1.3,1.05,2.35,2.35,2.35h12.31v15.7h15.7v8.77c0,1.3,1.05,2.35,2.35,2.35s2.35-1.05,2.35-2.35
			v-8.77h13.67v38.14c0,1.3,1.05,2.35,2.35,2.35s2.35-1.05,2.35-2.35v-38.14h13.67v8.77c0,1.3,1.05,2.35,2.35,2.35
			s2.35-1.05,2.35-2.35v-8.77h13.67v8.77c0,1.3,1.05,2.35,2.35,2.35s2.35-1.05,2.35-2.35v-8.77h13.67v17.16
			c0,1.3,1.05,2.35,2.35,2.35s2.35-1.05,2.35-2.35v-17.16h13.67v8.77c0,1.3,1.05,2.35,2.35,2.35s2.35-1.05,2.35-2.35v-8.77h15.7
			v-15.7h11.2c1.3,0,2.35-1.05,2.35-2.35c0-1.3-1.05-2.35-2.35-2.35h-11.2v-7.26c1.62,0.83,3.64,1.26,6.06,1.26h49.27v-11.27h-40.69
			C394.51,292.78,393.08,292.42,392.36,291.71z M374.95,323.4H261.11V209.56h113.85V323.4z"/>
	</g>
	<path class="st0" d="M575.2,371.51h-37.76c-0.97,0-1.76-0.79-1.76-1.76s0.79-1.76,1.76-1.76h37.76c0.97,0,1.76,0.79,1.76,1.76
		S576.18,371.51,575.2,371.51z"/>
	<path class="st0" d="M575.2,384.66h-37.76c-0.97,0-1.76-0.79-1.76-1.76s0.79-1.76,1.76-1.76h37.76c0.97,0,1.76,0.79,1.76,1.76
		S576.18,384.66,575.2,384.66z"/>
	<g>
		<path class="st1" d="M575.2,394.29h-37.76c-0.97,0-1.76,0.79-1.76,1.76c0,0.97,0.79,1.76,1.76,1.76h37.76
			c0.97,0,1.76-0.79,1.76-1.76C576.97,395.08,576.18,394.29,575.2,394.29z"/>
		<path class="st1" d="M591.08,329.51v-15.16l-52.41,14.24v-3.02c0-4.43-3.6-8.03-8.03-8.03c-4.43,0-8.03,3.6-8.03,8.03v6.11
			l-63.77-17.33v15.16l-9.93-2.39v18.16h-11.01l-16.19,22.79l-16.19-22.79h-14.2l23.61,31.2l-19.37,25.56l-20.86-49.7
			c-1.13-2.62-2.46-4.46-3.98-5.5c-1.52-1.04-3.62-1.57-6.3-1.57c-2.8,0-4.93,0.51-6.39,1.52c-1.46,1.02-2.76,2.86-3.89,5.54
			l-21.87,52.11V353.2c0-5.52-3.39-8.28-10.17-8.28c-3.24,0-5.64,0.69-7.2,2.07c-1.56,1.38-2.85,3.39-3.87,6.03l-16.29,42.02
			c-0.72,1.56-1.29,2.34-1.71,2.34c-0.42,0-0.99-0.78-1.71-2.34l-16.29-42.02c-1.02-2.64-2.31-4.65-3.87-6.03
			c-1.56-1.38-3.96-2.07-7.2-2.07c-6.78,0-10.17,2.76-10.17,8.28v55.43h11.88l-0.27-49.04c0-1.26,0.33-1.89,0.99-1.89
			c0.48,0,0.99,0.69,1.53,2.07l16.11,42.02c1.08,2.7,2.22,4.63,3.42,5.8c1.2,1.17,3.06,1.76,5.58,1.76c2.52,0,4.38-0.59,5.58-1.76
			c1.2-1.17,2.34-3.1,3.42-5.8l16.11-42.02c0.54-1.38,1.05-2.07,1.53-2.07c0.72,0,1.08,0.63,1.08,1.89l-0.36,49.04h11.88v-0.04
			h10.69l6.35-15.83h30.14l6.44,15.83h4.72h7.71h6.49l16.91-23.7l16.91,23.7h10.29v15.78l9.93-2.39v15.16l66.12-17.97l66.12,17.97
			v-15.16l9.93,2.39v-97.25L591.08,329.51z M352.33,384.36l10.28-25.49c0.66-1.73,1.25-2.59,1.79-2.59c0.54,0,1.13,0.86,1.79,2.59
			l10.19,25.49H352.33z M428.48,376.49l20.42-26.99v53.93L428.48,376.49z M458.83,417.08l-5.17,1.24v-85.16l5.17,1.24V417.08z
			 M530.64,322.23c1.84,0,3.33,1.49,3.33,3.33v4.3l-6.66,1.81v-6.11C527.31,323.73,528.8,322.23,530.64,322.23z M521.38,412.74
			l-55.4,15.06V323.7l55.4,15.06V412.74z M583.93,427.8l-55.4-15.06v-73.98l5.44-1.48v36.7c0,1.3,1.05,2.35,2.35,2.35
			c1.3,0,2.35-1.05,2.35-2.35v-15.61h36.53c0.97,0,1.76-0.79,1.76-1.76c0-0.97-0.79-1.76-1.76-1.76h-36.53V336l45.26-12.3V427.8z
			 M596.25,418.33l-5.17-1.24v-82.68l5.17-1.24V418.33z"/>
	</g>
</g>
</svg>
